<svg xmlns="http://www.w3.org/2000/svg" xmlns:xlink="http://www.w3.org/1999/xlink" width="200" zoomAndPan="magnify" viewBox="0 0 150 149.999998" height="200" preserveAspectRatio="xMidYMid meet" version="1.0"><defs><clipPath id="2d9b9d2de7"><path d="M 13.246094 62 L 19 62 L 19 67 L 13.246094 67 Z M 13.246094 62 " clip-rule="nonzero"/></clipPath><clipPath id="483357f4ea"><path d="M 132 62 L 136.996094 62 L 136.996094 67 L 132 67 Z M 132 62 " clip-rule="nonzero"/></clipPath><clipPath id="334a7339da"><path d="M 54 42.964844 L 71 42.964844 L 71 93 L 54 93 Z M 54 42.964844 " clip-rule="nonzero"/></clipPath><clipPath id="abdcc0a000"><path d="M 76 42.964844 L 97 42.964844 L 97 93 L 76 93 Z M 76 42.964844 " clip-rule="nonzero"/></clipPath><clipPath id="00e9922e54"><path d="M 35 78 L 115 78 L 115 106.714844 L 35 106.714844 Z M 35 78 " clip-rule="nonzero"/></clipPath></defs><rect x="-15" width="180" fill="#ffffff" y="-15" height="179.999997" fill-opacity="1"/><rect x="-15" width="180" fill="#ffffff" y="-15" height="179.999997" fill-opacity="1"/><rect x="-15" width="180" fill="#ffffff" y="-15" height="179.999997" fill-opacity="1"/><path fill="#80cc28" d="M 28.710938 56.925781 L 33.804688 68.058594 C 40.03125 54.792969 26.320312 50.582031 26.320312 50.582031 L 26.332031 50.613281 C 26.070312 51.042969 19.035156 62.757812 32.121094 68.636719 L 28.710938 56.925781 " fill-opacity="1" fill-rule="nonzero"/><path fill="#80cc28" d="M 20.382812 70.519531 L 29.675781 72.160156 C 20.9375 79.269531 15.1875 69.960938 15.1875 69.960938 L 15.214844 69.964844 C 15.484375 69.691406 22.902344 62.277344 29.785156 70.808594 L 20.382812 70.519531 " fill-opacity="1" fill-rule="nonzero"/><path fill="#80cc28" d="M 36.824219 72.894531 C 36.824219 74.207031 35.75 75.269531 34.429688 75.269531 C 33.109375 75.269531 32.035156 74.207031 32.035156 72.894531 C 32.035156 71.582031 33.109375 70.519531 34.429688 70.519531 C 35.75 70.519531 36.824219 71.582031 36.824219 72.894531 " fill-opacity="1" fill-rule="nonzero"/><g clip-path="url(#2d9b9d2de7)"><path fill="#80cc28" d="M 15.632812 66.933594 C 14.3125 66.933594 13.242188 65.871094 13.242188 64.558594 C 13.242188 63.246094 14.3125 62.179688 15.632812 62.179688 C 16.957031 62.179688 18.027344 63.246094 18.027344 64.558594 C 18.027344 65.871094 16.957031 66.933594 15.632812 66.933594 " fill-opacity="1" fill-rule="nonzero"/></g><path fill="#80cc28" d="M 38.816406 54.789062 C 39.53125 55.5 39.53125 56.648438 38.816406 57.359375 C 38.101562 58.070312 36.945312 58.070312 36.230469 57.359375 C 35.515625 56.648438 35.515625 55.5 36.230469 54.789062 C 36.945312 54.078125 38.101562 54.078125 38.816406 54.789062 " fill-opacity="1" fill-rule="nonzero"/><path fill="#80cc28" d="M 23.140625 62.066406 C 23.476562 62.402344 23.476562 62.941406 23.140625 63.277344 C 22.800781 63.609375 22.257812 63.609375 21.921875 63.277344 C 21.582031 62.941406 21.582031 62.402344 21.921875 62.066406 C 22.257812 61.730469 22.800781 61.730469 23.140625 62.066406 " fill-opacity="1" fill-rule="nonzero"/><path fill="#80cc28" d="M 18.152344 75.773438 C 18.777344 75.773438 19.28125 76.277344 19.28125 76.894531 C 19.28125 77.515625 18.777344 78.015625 18.152344 78.015625 C 17.53125 78.015625 17.023438 77.515625 17.023438 76.894531 C 17.023438 76.277344 17.53125 75.773438 18.152344 75.773438 " fill-opacity="1" fill-rule="nonzero"/><path fill="#80cc28" d="M 121.523438 56.925781 L 116.425781 68.058594 C 110.203125 54.792969 123.910156 50.582031 123.910156 50.582031 L 123.898438 50.613281 C 124.164062 51.042969 131.195312 62.753906 118.109375 68.636719 L 121.523438 56.925781 " fill-opacity="1" fill-rule="nonzero"/><path fill="#80cc28" d="M 129.847656 70.519531 L 120.554688 72.160156 C 129.292969 79.269531 135.042969 69.960938 135.042969 69.960938 L 135.019531 69.964844 C 134.746094 69.691406 127.328125 62.277344 120.445312 70.808594 L 129.847656 70.519531 " fill-opacity="1" fill-rule="nonzero"/><path fill="#80cc28" d="M 113.40625 72.894531 C 113.40625 74.207031 114.480469 75.269531 115.800781 75.269531 C 117.121094 75.269531 118.195312 74.207031 118.195312 72.894531 C 118.195312 71.582031 117.121094 70.519531 115.800781 70.519531 C 114.480469 70.519531 113.40625 71.582031 113.40625 72.894531 " fill-opacity="1" fill-rule="nonzero"/><g clip-path="url(#483357f4ea)"><path fill="#80cc28" d="M 134.597656 66.933594 C 135.917969 66.933594 136.988281 65.871094 136.988281 64.558594 C 136.988281 63.246094 135.917969 62.179688 134.597656 62.179688 C 133.273438 62.179688 132.203125 63.246094 132.203125 64.558594 C 132.203125 65.871094 133.273438 66.933594 134.597656 66.933594 " fill-opacity="1" fill-rule="nonzero"/></g><path fill="#80cc28" d="M 111.414062 54.789062 C 110.699219 55.5 110.699219 56.648438 111.414062 57.359375 C 112.128906 58.070312 113.289062 58.070312 114 57.359375 C 114.714844 56.648438 114.714844 55.5 114 54.789062 C 113.289062 54.078125 112.128906 54.078125 111.414062 54.789062 " fill-opacity="1" fill-rule="nonzero"/><path fill="#80cc28" d="M 127.09375 62.066406 C 126.753906 62.402344 126.753906 62.941406 127.09375 63.277344 C 127.429688 63.613281 127.972656 63.613281 128.3125 63.277344 C 128.648438 62.941406 128.648438 62.402344 128.3125 62.066406 C 127.972656 61.734375 127.429688 61.734375 127.09375 62.066406 " fill-opacity="1" fill-rule="nonzero"/><path fill="#80cc28" d="M 132.078125 75.773438 C 131.453125 75.773438 130.949219 76.277344 130.949219 76.894531 C 130.949219 77.515625 131.453125 78.015625 132.078125 78.015625 C 132.703125 78.015625 133.207031 77.515625 133.207031 76.894531 C 133.207031 76.277344 132.703125 75.773438 132.078125 75.773438 " fill-opacity="1" fill-rule="nonzero"/><g clip-path="url(#334a7339da)"><path fill="#f68712" d="M 60.105469 80.367188 L 59.5 90.136719 C 61.246094 91.023438 63.070312 91.761719 64.957031 92.339844 L 64.214844 80.367188 C 63.964844 76.308594 65.265625 72.242188 68.066406 69.277344 C 69.421875 67.839844 70.253906 65.910156 70.253906 63.785156 L 70.253906 42.984375 L 67.941406 42.984375 L 67.941406 60.847656 C 67.941406 61.484375 67.425781 61.996094 66.785156 61.996094 C 66.148438 61.996094 65.628906 61.484375 65.628906 60.847656 L 65.628906 42.984375 L 63.316406 42.984375 L 63.316406 60.847656 C 63.316406 61.484375 62.796875 61.996094 62.160156 61.996094 C 61.519531 61.996094 61.003906 61.484375 61.003906 60.847656 L 61.003906 42.984375 L 58.691406 42.984375 L 58.691406 60.847656 C 58.691406 61.484375 58.171875 61.996094 57.535156 61.996094 C 56.894531 61.996094 56.378906 61.484375 56.378906 60.847656 L 56.378906 42.984375 L 54.066406 42.984375 L 54.066406 63.785156 C 54.066406 65.910156 54.898438 67.839844 56.253906 69.277344 C 59.054688 72.242188 60.355469 76.308594 60.105469 80.367188 " fill-opacity="1" fill-rule="nonzero"/></g><g clip-path="url(#abdcc0a000)"><path fill="#f68712" d="M 84.53125 80.121094 L 83.75 92.765625 C 85.652344 92.277344 87.5 91.632812 89.277344 90.835938 L 88.613281 80.121094 C 88.375 76.285156 89.628906 72.484375 92.203125 69.613281 C 94.605469 66.941406 96.164062 62.601562 96.164062 57.703125 C 96.164062 49.574219 91.871094 42.984375 86.570312 42.984375 C 81.273438 42.984375 76.980469 49.574219 76.980469 57.703125 C 76.980469 62.601562 78.539062 66.941406 80.941406 69.613281 C 83.515625 72.484375 84.769531 76.285156 84.53125 80.121094 " fill-opacity="1" fill-rule="nonzero"/></g><g clip-path="url(#00e9922e54)"><path fill="#f68712" d="M 112.082031 78.6875 C 112.050781 78.671875 112.019531 78.65625 111.984375 78.640625 C 109.640625 77.453125 106.75 78.160156 105.285156 80.328125 C 98.148438 90.898438 86.632812 96.183594 75.117188 96.183594 C 63.597656 96.183594 52.082031 90.898438 44.945312 80.328125 C 43.480469 78.160156 40.589844 77.453125 38.246094 78.640625 C 38.210938 78.65625 38.179688 78.671875 38.148438 78.6875 C 35.363281 80.097656 34.414062 83.617188 36.152344 86.199219 C 45.359375 99.867188 60.238281 106.699219 75.117188 106.699219 C 89.992188 106.699219 104.871094 99.867188 114.078125 86.199219 C 115.816406 83.617188 114.871094 80.097656 112.082031 78.6875 " fill-opacity="1" fill-rule="nonzero"/></g></svg>